<?xml version="1.0" encoding="utf-8"?>
<!-- Generator: Adobe Illustrator 24.0.1, SVG Export Plug-In . SVG Version: 6.00 Build 0)  -->
<svg version="1.1" id="Layer_1" xmlns="http://www.w3.org/2000/svg" xmlns:xlink="http://www.w3.org/1999/xlink" x="0px" y="0px"
	 viewBox="0 0 205 22" style="enable-background:new 0 0 205 22;" xml:space="preserve">
<style type="text/css">
	.st0{fill:#4f8a8b;}
	.st1{fill:none;}
</style>
<g>
	<g>
		<path d="M40.2,13.1c-0.7,3.1-3,5.3-7.1,5.3c-5.2,0-7.7-3.7-7.7-8.4c0-4.5,2.6-8.6,7.9-8.6c4.4,0,6.5,2.6,6.9,5.4h-3.6
			c-0.3-1.3-1.2-2.5-3.5-2.5c-3,0-4.1,2.7-4.1,5.7c0,2.8,1,5.7,4.2,5.7c2.3,0,3.1-1.6,3.4-2.5H40.2z"/>
		<path d="M54.5,12c0,3.8-2.2,6.5-6.2,6.5c-3.9,0-6.1-2.7-6.1-6.5c0-3.8,2.3-6.5,6.3-6.5C52.1,5.5,54.5,8.1,54.5,12z M45.7,12
			c0,2.4,1,3.8,2.7,3.8c1.7,0,2.6-1.4,2.6-3.8c0-2.6-1-3.8-2.7-3.8C46.7,8.2,45.7,9.4,45.7,12z"/>
		<path d="M56.9,9c0-1.1,0-2.1,0-3.2h3.3c0,0.3,0.1,1,0.1,1.5c0.6-0.9,1.6-1.8,3.5-1.8c1.8,0,2.8,0.9,3.2,1.9c0.7-1,1.8-1.9,3.8-1.9
			c2.2,0,3.9,1.3,3.9,4.6v8.2h-3.4v-7.7c0-1.1-0.4-2.2-1.8-2.2c-1.5,0-2,0.9-2,2.8v7.1h-3.4v-7.6c0-1.3-0.3-2.3-1.8-2.3
			c-1.4,0-2.1,0.9-2.1,3v6.9h-3.4V9z"/>
		<path d="M81.3,17.1V23h-3.4V8.8c0-1,0-2,0-3h3.3c0,0.3,0.1,1.1,0.1,1.5c0.5-0.9,1.6-1.8,3.6-1.8c2.8,0,4.9,2.3,4.9,6.2
			c0,4.4-2.4,6.8-5.4,6.8C82.7,18.5,81.8,17.8,81.3,17.1z M86.4,11.8c0-2.3-0.9-3.6-2.6-3.6c-2,0-2.6,1.3-2.6,3.8
			c0,2.4,0.6,3.8,2.5,3.8C85.5,15.7,86.4,14.3,86.4,11.8z"/>
		<path d="M103.2,14.6c0,1.2,0,2.5,0,3.6h-3.4c0-0.3-0.1-1-0.1-1.4c-0.7,1.2-1.8,1.7-3.4,1.7c-2.5,0-4.1-1.5-4.1-4.6V5.8h3.4v7.4
			c0,1.4,0.4,2.5,1.9,2.5c1.6,0,2.2-0.8,2.2-3.3V5.8h3.4V14.6z"/>
		<path d="M105.2,5.8h1.9V2.4h3.4v3.4h2.4v2.6h-2.4v6.1c0,0.9,0.3,1.3,1.3,1.3c0.2,0,0.5,0,0.8,0v2.4c-0.7,0.2-1.6,0.2-2.3,0.2
			c-2.4,0-3.2-1.3-3.2-3.5V8.4h-1.9V5.8z"/>
		<path d="M117.9,12.7c0,1.6,0.8,3.1,2.5,3.1c1.4,0,1.8-0.6,2.2-1.3h3.4c-0.4,1.5-1.8,4-5.7,4c-4.1,0-5.9-3.1-5.9-6.3
			c0-3.9,2-6.7,6-6.7c4.3,0,5.7,3.1,5.7,6.2c0,0.4,0,0.7,0,1H117.9z M122.7,10.6c0-1.4-0.6-2.7-2.3-2.7c-1.6,0-2.3,1.1-2.4,2.7
			H122.7z"/>
		<path d="M128.6,9.1c0-1.2,0-2.3,0-3.4h3.4c0,0.3,0.1,1.5,0.1,2.2c0.5-1.4,1.9-2.5,4-2.5v3.3c-2.5-0.1-4,0.6-4,4v5.4h-3.4V9.1z"/>
		<path class="st0" d="M146.8,13.3c0.4,1.7,1.6,2.4,3.5,2.4c1.9,0,2.7-0.8,2.7-2c0-1.3-0.8-1.9-3.6-2.6c-4.5-1.1-5.6-2.7-5.6-4.9
			c0-2.9,2.2-4.8,6.1-4.8c4.4,0,6.1,2.4,6.4,4.8h-3.6c-0.2-1-0.7-2.1-2.9-2.1c-1.5,0-2.3,0.6-2.3,1.8c0,1.2,0.7,1.6,3.4,2.2
			c4.8,1.1,5.9,2.9,5.9,5.3c0,3-2.3,5.1-6.7,5.1c-4.2,0-6.4-2.1-6.8-5.1H146.8z"/>
		<path class="st0" d="M158.1,5.8h1.9V2.4h3.4v3.4h2.4v2.6h-2.4v6.1c0,0.9,0.3,1.3,1.3,1.3c0.2,0,0.5,0,0.8,0v2.4
			c-0.7,0.2-1.6,0.2-2.3,0.2c-2.4,0-3.2-1.3-3.2-3.5V8.4h-1.9V5.8z"/>
		<path class="st0" d="M179.6,12c0,3.8-2.2,6.5-6.2,6.5c-3.9,0-6.1-2.7-6.1-6.5c0-3.8,2.3-6.5,6.3-6.5C177.3,5.5,179.6,8.1,179.6,12
			z M170.9,12c0,2.4,1,3.8,2.7,3.8c1.7,0,2.6-1.4,2.6-3.8c0-2.6-1-3.8-2.7-3.8C171.9,8.2,170.9,9.4,170.9,12z"/>
		<path class="st0" d="M182.1,9.1c0-1.2,0-2.3,0-3.4h3.4c0,0.3,0.1,1.5,0.1,2.2c0.5-1.4,1.9-2.5,4-2.5v3.3c-2.5-0.1-4,0.6-4,4v5.4
			h-3.4V9.1z"/>
		<path class="st0" d="M194.3,12.7c0,1.6,0.8,3.1,2.5,3.1c1.4,0,1.8-0.6,2.2-1.3h3.4c-0.4,1.5-1.8,4-5.7,4c-4.1,0-5.9-3.1-5.9-6.3
			c0-3.9,2-6.7,6-6.7c4.3,0,5.7,3.1,5.7,6.2c0,0.4,0,0.7,0,1H194.3z M199.1,10.6c0-1.4-0.6-2.7-2.3-2.7c-1.6,0-2.3,1.1-2.4,2.7
			H199.1z"/>
	</g>
</g>
<rect x="23" y="13" class="st1" width="10.2" height="0.6"/>
<g>
	<g>
		<path d="M277,68.5h3.6v13.6h8.2l-0.4,2.9H277V68.5z"/>
		<path d="M302.2,78.8c0,3.8-2.2,6.5-6.2,6.5c-3.9,0-6.1-2.7-6.1-6.5c0-3.8,2.3-6.5,6.3-6.5C299.9,72.3,302.2,74.9,302.2,78.8z
			 M293.4,78.8c0,2.4,1,3.8,2.7,3.8c1.7,0,2.6-1.4,2.6-3.8c0-2.6-1-3.8-2.7-3.8C294.5,75,293.4,76.2,293.4,78.8z"/>
		<path d="M304.7,75.9c0-1.2,0-2.3,0-3.4h3.4c0,0.3,0.1,1.5,0.1,2.2c0.5-1.4,1.9-2.5,4-2.5v3.3c-2.5-0.1-4,0.6-4,4V85h-3.4V75.9z"/>
		<path d="M316.9,79.5c0,1.6,0.8,3.1,2.5,3.1c1.4,0,1.8-0.6,2.2-1.3h3.4c-0.4,1.5-1.8,4-5.7,4c-4.1,0-5.9-3.1-5.9-6.3
			c0-3.9,2-6.7,6-6.7c4.3,0,5.7,3.1,5.7,6.2c0,0.4,0,0.7,0,1H316.9z M321.7,77.4c0-1.4-0.6-2.7-2.3-2.7c-1.6,0-2.3,1.1-2.4,2.7
			H321.7z"/>
		<path d="M327.6,75.8c0-1.1,0-2.1,0-3.2h3.3c0,0.3,0.1,1,0.1,1.5c0.6-0.9,1.6-1.8,3.5-1.8c1.8,0,2.8,0.9,3.2,1.9
			c0.7-1,1.8-1.9,3.8-1.9c2.2,0,3.9,1.3,3.9,4.6V85h-3.4v-7.7c0-1.1-0.4-2.2-1.8-2.2c-1.5,0-2,0.9-2,2.8V85h-3.4v-7.6
			c0-1.3-0.3-2.3-1.8-2.3c-1.4,0-2.1,0.9-2.1,3V85h-3.4V75.8z"/>
		<path d="M354.4,67.5h3.4v3.1h-3.4V67.5z M354.4,72.6h3.4V85h-3.4V72.6z"/>
		<path d="M364.5,83.9v5.9H361V75.6c0-1,0-2,0-3h3.3c0,0.3,0.1,1.1,0.1,1.5c0.5-0.9,1.6-1.8,3.6-1.8c2.8,0,4.9,2.3,4.9,6.2
			c0,4.4-2.4,6.8-5.4,6.8C365.9,85.3,364.9,84.6,364.5,83.9z M369.5,78.6c0-2.3-0.9-3.6-2.6-3.6c-2,0-2.6,1.3-2.6,3.8
			c0,2.4,0.6,3.8,2.5,3.8C368.7,82.6,369.5,81.1,369.5,78.6z"/>
		<path d="M378,81.3c0.3,1,1.1,1.5,2.4,1.5c1.3,0,1.7-0.5,1.7-1.2c0-0.8-0.5-1.1-2.3-1.5c-4-1-4.7-2.3-4.7-4c0-1.8,1.3-3.8,5-3.8
			c3.8,0,5,2.1,5.2,3.7H382c-0.1-0.5-0.4-1.3-2-1.3c-1.1,0-1.5,0.5-1.5,1.1c0,0.6,0.4,0.9,2.4,1.4c4.1,1,4.7,2.4,4.7,4.2
			c0,2.1-1.6,3.9-5.4,3.9c-3.8,0-5.3-1.8-5.6-4H378z"/>
		<path d="M398.9,81.4c0,1.2,0,2.5,0,3.6h-3.4c0-0.3-0.1-1-0.1-1.4c-0.7,1.2-1.8,1.7-3.4,1.7c-2.5,0-4.1-1.5-4.1-4.6v-8.1h3.4V80
			c0,1.4,0.4,2.5,1.9,2.5c1.6,0,2.2-0.8,2.2-3.3v-6.6h3.4V81.4z"/>
		<path d="M402,75.8c0-1.1,0-2.1,0-3.2h3.3c0,0.3,0.1,1,0.1,1.5c0.6-0.9,1.6-1.8,3.5-1.8c1.8,0,2.8,0.9,3.2,1.9
			c0.7-1,1.8-1.9,3.8-1.9c2.2,0,3.9,1.3,3.9,4.6V85h-3.4v-7.7c0-1.1-0.4-2.2-1.8-2.2c-1.5,0-2,0.9-2,2.8V85h-3.4v-7.6
			c0-1.3-0.3-2.3-1.8-2.3c-1.4,0-2.1,0.9-2.1,3V85H402V75.8z"/>
	</g>
</g>
</svg>
